<?xml version="1.0" encoding="UTF-8" standalone="no"?>
<!DOCTYPE svg PUBLIC "-//W3C//DTD SVG 1.1//EN" "http://www.w3.org/Graphics/SVG/1.1/DTD/svg11.dtd">
<svg width="100%" height="100%" viewBox="0 0 100 100" version="1.1" xmlns="http://www.w3.org/2000/svg" xmlns:xlink="http://www.w3.org/1999/xlink" xml:space="preserve" xmlns:serif="http://www.serif.com/" style="fill-rule:evenodd;clip-rule:evenodd;stroke-linecap:round;stroke-linejoin:round;stroke-miterlimit:1.5;">
    <g>
        <g transform="matrix(1.14516,0,0,1.26582,-14.629,-20.2532)">
            <path d="M87,16C87,16 79.133,21.881 76.118,21.881C73.104,21.881 72.012,15.932 68.913,16C65.632,16.072 59.99,22.311 56.437,22.311C52.883,22.311 50.932,15.998 47.59,16C44.247,16.002 39.365,22.32 36.381,22.32C33.396,22.32 31.433,15.868 29.681,16C27.93,16.132 25.873,23.11 25.873,23.11L25,95C25,95 31.921,90.26 35.189,90.26C38.457,90.26 41.094,94.869 44.606,95C48.147,95.132 52.279,91.05 56.437,91.05C60.722,91.05 66.288,95 70.321,95C74.002,95 77.854,91.05 80.634,91.05C83.131,91.05 87,95 87,95L87,16Z" style="fill:white;stroke:black;stroke-width:0.83px;"/>
        </g>
        <g transform="matrix(1,0,0,1,1.97871,36.8201)">
            <text x="19.107px" y="25.16px" style="font-family:'ArialMT', 'Arial', sans-serif;font-size:16.667px;">1x 471<tspan x="67.911px " y="25.16px ">1</tspan></text>
        </g>
        <g transform="matrix(0.0583269,0,0,0.0583269,44.2549,25.522)">
            <g transform="matrix(1,0,0,1,-136.8,-180)">
                <path d="M217.021,167.042C235.652,157.559 247.309,140.858 244.586,113.035C240.919,75.012 208.06,62.262 166.58,58.631L166.572,5.89L134.433,5.89L134.424,57.244C125.968,57.244 117.348,57.41 108.767,57.582L108.76,5.897L76.65,5.894L76.644,58.622C69.685,58.764 62.851,58.899 56.178,58.899L56.178,58.743L11.848,58.725L11.854,93.007C11.854,93.007 35.588,92.561 35.197,92.994C48.21,93.003 52.459,100.553 53.681,107.07L53.691,167.153L53.691,251.55C53.118,255.64 50.707,262.175 41.608,262.187C42.022,262.551 18.229,262.183 18.229,262.183L11.854,300.518L53.671,300.518C61.463,300.527 69.119,300.648 76.63,300.708L76.658,354.046L108.76,354.055L108.751,301.276C117.583,301.456 126.108,301.534 134.435,301.523L134.426,354.055L166.564,354.055L166.582,300.806C220.604,297.706 258.424,284.109 263.126,233.421C266.916,192.612 247.692,174.396 217.021,167.042ZM109.535,95.321C127.661,95.321 184.667,89.554 184.675,127.385C184.667,163.654 127.679,159.417 109.535,159.417L109.535,95.321ZM109.521,262.447L109.535,191.775C131.313,191.769 199.62,185.514 199.629,227.095C199.638,266.971 131.313,262.431 109.521,262.447Z" style="fill-rule:nonzero;"/>
            </g>
        </g>
        <g transform="matrix(1,0,0,1,-50.9232,-29.2263)">
            <text x="105.216px" y="60.815px" style="font-family:'ArialMT', 'Arial', sans-serif;font-size:16.667px;stroke:black;stroke-width:1px;stroke-linecap:butt;stroke-miterlimit:1.41421;">?</text>
        </g>
    </g>
</svg>
