<?xml version="1.0" encoding="UTF-8" standalone="no"?>
<!DOCTYPE svg PUBLIC "-//W3C//DTD SVG 1.1//EN" "http://www.w3.org/Graphics/SVG/1.1/DTD/svg11.dtd">
<svg width="100%" height="100%" viewBox="0 0 100 100" version="1.1" xmlns="http://www.w3.org/2000/svg" xmlns:xlink="http://www.w3.org/1999/xlink" xml:space="preserve" xmlns:serif="http://www.serif.com/" style="fill-rule:evenodd;clip-rule:evenodd;stroke-linejoin:round;stroke-miterlimit:1.41421;">
    <g>
        <g transform="matrix(2.10867,0,0,2.10867,-43.5417,-5.27839)">
            <path d="M38.916,31.351C37.192,34.238 34.061,36.169 30.488,36.169C25.058,36.169 20.649,31.709 20.649,26.215C20.649,20.721 25.058,16.26 30.488,16.26C34.061,16.26 37.192,18.192 38.916,21.079C38.916,21.079 54.813,21.096 61.261,21.079C63.612,21.073 66.781,22.699 67.69,23.982C68.599,25.265 67.73,27.537 66.715,28.779C65.7,30.021 61.601,31.434 61.601,31.434L57.333,29.043L53.228,31.4L50,28.963L44.969,31.4L42.193,29.206L38.916,31.351ZM27.166,24.589C28.358,24.589 29.325,25.575 29.325,26.79C29.325,28.004 28.358,28.99 27.166,28.99C25.975,28.99 25.007,28.004 25.007,26.79C25.007,25.575 25.975,24.589 27.166,24.589Z"/>
        </g>
        <g transform="matrix(0.932607,0,0,0.866729,-0.443766,17.6199)">
            <text x="37.593px" y="42.195px" style="font-family:'ArialMT', 'Arial', sans-serif;font-size:16.667px;fill:white;stroke:white;stroke-width:1.11px;">471<tspan x="64.164px " y="42.195px ">1</tspan></text>
        </g>
    </g>
</svg>
