<?xml version="1.0" encoding="UTF-8" standalone="no"?>
<!DOCTYPE svg PUBLIC "-//W3C//DTD SVG 1.1//EN" "http://www.w3.org/Graphics/SVG/1.1/DTD/svg11.dtd">
<svg width="100%" height="100%" viewBox="0 0 100 100" version="1.1" xmlns="http://www.w3.org/2000/svg" xmlns:xlink="http://www.w3.org/1999/xlink" xml:space="preserve" xmlns:serif="http://www.serif.com/" style="fill-rule:evenodd;clip-rule:evenodd;stroke-linecap:round;stroke-linejoin:round;stroke-miterlimit:1.5;">
    <g>
        <g transform="matrix(1.14516,0,0,1.26582,-14.629,-20.2532)">
            <path d="M87,16C87,16 79.133,21.881 76.118,21.881C73.104,21.881 72.012,15.932 68.913,16C65.632,16.072 59.99,22.311 56.437,22.311C52.883,22.311 50.932,15.998 47.59,16C44.247,16.002 39.365,22.32 36.381,22.32C33.396,22.32 31.433,15.868 29.681,16C27.93,16.132 25.873,23.11 25.873,23.11L25,95C25,95 31.921,90.26 35.189,90.26C38.457,90.26 41.094,94.869 44.606,95C48.147,95.132 52.279,91.05 56.437,91.05C60.722,91.05 66.288,95 70.321,95C74.002,95 77.854,91.05 80.634,91.05C83.131,91.05 87,95 87,95L87,16Z" style="fill:white;stroke:black;stroke-width:0.83px;"/>
        </g>
        <g transform="matrix(1,0,0,1,1.97871,36.8201)">
            <text x="19.107px" y="25.16px" style="font-family:'ArialMT', 'Arial', sans-serif;font-size:16.667px;">1x 471<tspan x="67.911px " y="25.16px ">1</tspan></text>
        </g>
        <g transform="matrix(0.642177,0,0,0.642177,21.5126,5.87741)">
            <path d="M38.916,31.351C37.192,34.238 34.061,36.169 30.488,36.169C25.058,36.169 20.649,31.709 20.649,26.215C20.649,20.721 25.058,16.26 30.488,16.26C34.061,16.26 37.192,18.192 38.916,21.079C38.916,21.079 54.813,21.096 61.261,21.079C63.612,21.073 66.781,22.699 67.69,23.982C68.599,25.265 67.73,27.537 66.715,28.779C65.7,30.021 61.601,31.434 61.601,31.434L57.333,29.043L53.228,31.4L50,28.963L44.969,31.4L42.193,29.206L38.916,31.351ZM27.166,24.589C28.358,24.589 29.325,25.575 29.325,26.79C29.325,28.004 28.358,28.99 27.166,28.99C25.975,28.99 25.007,28.004 25.007,26.79C25.007,25.575 25.975,24.589 27.166,24.589Z"/>
        </g>
    </g>
</svg>
